STARTFONT 2.1
FONT -FontForge-04b25-Book-R-Normal--12-120-75-75-P-57-ISO10646-1
SIZE 12 75 75
FONTBOUNDINGBOX 8 12 0 -2
COMMENT "Generated by fontforge, http://fontforge.sourceforge.net"
COMMENT "1999-2003 / yuji oshimoo / 04@dsg4.com / www.04.jp.org"
STARTPROPERTIES 39
FOUNDRY "FontForge"
FAMILY_NAME "04b25"
WEIGHT_NAME "Book"
SLANT "R"
SETWIDTH_NAME "Normal"
ADD_STYLE_NAME ""
PIXEL_SIZE 12
POINT_SIZE 120
RESOLUTION_X 75
RESOLUTION_Y 75
SPACING "P"
AVERAGE_WIDTH 57
CHARSET_REGISTRY "ISO10646"
CHARSET_ENCODING "1"
FONTNAME_REGISTRY ""
CHARSET_COLLECTIONS "ISO10646-1"
FONT_NAME "04b25"
FACE_NAME "04b25"
COPYRIGHT "1999-2003 / yuji oshimoo / 04@dsg4.com / www.04.jp.org"
FONT_VERSION "Macromedia Fonographer 4.1J 03.3.25"
FONT_ASCENT 10
FONT_DESCENT 2
UNDERLINE_POSITION -2
UNDERLINE_THICKNESS 1
X_HEIGHT 5
CAP_HEIGHT 7
RAW_ASCENT 833
RAW_DESCENT 166
NORM_SPACE 4
RELATIVE_WEIGHT 40
RELATIVE_SETWIDTH 50
SUPERSCRIPT_X 0
SUPERSCRIPT_Y 5
SUPERSCRIPT_SIZE 7
SUBSCRIPT_X 0
SUBSCRIPT_Y 1
SUBSCRIPT_SIZE 7
AVG_LOWERCASE_WIDTH 59
AVG_UPPERCASE_WIDTH 61
ENDPROPERTIES
CHARS 101
STARTCHAR space
ENCODING 32
SWIDTH 333 0
DWIDTH 4 0
BBX 1 1 0 0
BITMAP
00
ENDCHAR
STARTCHAR exclam
ENCODING 33
SWIDTH 250 0
DWIDTH 3 0
BBX 2 8 0 0
BITMAP
C0
C0
C0
C0
C0
00
C0
C0
ENDCHAR
STARTCHAR quotedbl
ENCODING 34
SWIDTH 500 0
DWIDTH 6 0
BBX 5 3 0 5
BITMAP
D8
D8
D8
ENDCHAR
STARTCHAR numbersign
ENCODING 35
SWIDTH 666 0
DWIDTH 8 0
BBX 7 8 0 0
BITMAP
6C
FE
FE
6C
6C
FE
FE
6C
ENDCHAR
STARTCHAR dollar
ENCODING 36
SWIDTH 666 0
DWIDTH 8 0
BBX 7 10 0 -1
BITMAP
18
7C
FC
D8
FC
7E
36
7E
7C
30
ENDCHAR
STARTCHAR percent
ENCODING 37
SWIDTH 583 0
DWIDTH 7 0
BBX 6 8 0 0
BITMAP
CC
CC
1C
1C
E0
E0
CC
CC
ENDCHAR
STARTCHAR ampersand
ENCODING 38
SWIDTH 666 0
DWIDTH 8 0
BBX 7 8 0 0
BITMAP
60
F8
D8
E6
E6
D8
FE
66
ENDCHAR
STARTCHAR quotesingle
ENCODING 39
SWIDTH 250 0
DWIDTH 3 0
BBX 2 3 0 5
BITMAP
C0
C0
C0
ENDCHAR
STARTCHAR parenleft
ENCODING 40
SWIDTH 416 0
DWIDTH 5 0
BBX 4 8 0 0
BITMAP
70
F0
C0
C0
C0
C0
F0
70
ENDCHAR
STARTCHAR parenright
ENCODING 41
SWIDTH 416 0
DWIDTH 5 0
BBX 4 8 0 0
BITMAP
C0
F0
30
30
30
30
F0
C0
ENDCHAR
STARTCHAR asterisk
ENCODING 42
SWIDTH 500 0
DWIDTH 6 0
BBX 5 5 0 3
BITMAP
D8
F8
70
F8
D8
ENDCHAR
STARTCHAR plus
ENCODING 43
SWIDTH 583 0
DWIDTH 7 0
BBX 6 6 0 1
BITMAP
30
30
FC
FC
30
30
ENDCHAR
STARTCHAR comma
ENCODING 44
SWIDTH 250 0
DWIDTH 3 0
BBX 2 3 0 -1
BITMAP
C0
C0
C0
ENDCHAR
STARTCHAR hyphen
ENCODING 45
SWIDTH 583 0
DWIDTH 7 0
BBX 6 2 0 3
BITMAP
FC
FC
ENDCHAR
STARTCHAR period
ENCODING 46
SWIDTH 250 0
DWIDTH 3 0
BBX 2 2 0 0
BITMAP
C0
C0
ENDCHAR
STARTCHAR slash
ENCODING 47
SWIDTH 750 0
DWIDTH 9 0
BBX 8 8 0 0
BITMAP
03
07
0E
1C
38
70
E0
C0
ENDCHAR
STARTCHAR zero
ENCODING 48
SWIDTH 500 0
DWIDTH 6 0
BBX 5 8 0 0
BITMAP
70
F8
D8
D8
D8
D8
F8
70
ENDCHAR
STARTCHAR one
ENCODING 49
SWIDTH 333 0
DWIDTH 4 0
BBX 3 8 0 0
BITMAP
C0
E0
60
60
60
60
60
60
ENDCHAR
STARTCHAR two
ENCODING 50
SWIDTH 500 0
DWIDTH 6 0
BBX 5 8 0 0
BITMAP
F0
F8
18
78
F0
C0
F8
F8
ENDCHAR
STARTCHAR three
ENCODING 51
SWIDTH 500 0
DWIDTH 6 0
BBX 5 8 0 0
BITMAP
F0
F8
18
F8
F8
18
F8
F0
ENDCHAR
STARTCHAR four
ENCODING 52
SWIDTH 500 0
DWIDTH 6 0
BBX 5 8 0 0
BITMAP
D8
D8
D8
D8
F8
78
18
18
ENDCHAR
STARTCHAR five
ENCODING 53
SWIDTH 500 0
DWIDTH 6 0
BBX 5 8 0 0
BITMAP
F8
F8
C0
F0
F8
18
F8
F0
ENDCHAR
STARTCHAR six
ENCODING 54
SWIDTH 500 0
DWIDTH 6 0
BBX 5 8 0 0
BITMAP
70
F0
C0
F0
F8
D8
F8
70
ENDCHAR
STARTCHAR seven
ENCODING 55
SWIDTH 500 0
DWIDTH 6 0
BBX 5 8 0 0
BITMAP
F8
F8
18
38
70
60
60
60
ENDCHAR
STARTCHAR eight
ENCODING 56
SWIDTH 500 0
DWIDTH 6 0
BBX 5 8 0 0
BITMAP
70
F8
D8
F8
F8
D8
F8
70
ENDCHAR
STARTCHAR nine
ENCODING 57
SWIDTH 500 0
DWIDTH 6 0
BBX 5 8 0 0
BITMAP
70
F8
D8
F8
78
18
78
70
ENDCHAR
STARTCHAR colon
ENCODING 58
SWIDTH 250 0
DWIDTH 3 0
BBX 2 6 0 1
BITMAP
C0
C0
00
00
C0
C0
ENDCHAR
STARTCHAR semicolon
ENCODING 59
SWIDTH 250 0
DWIDTH 3 0
BBX 2 7 0 0
BITMAP
C0
C0
00
00
C0
C0
C0
ENDCHAR
STARTCHAR less
ENCODING 60
SWIDTH 500 0
DWIDTH 6 0
BBX 5 8 0 0
BITMAP
18
38
70
E0
E0
70
38
18
ENDCHAR
STARTCHAR equal
ENCODING 61
SWIDTH 500 0
DWIDTH 6 0
BBX 5 6 0 1
BITMAP
F8
F8
00
00
F8
F8
ENDCHAR
STARTCHAR greater
ENCODING 62
SWIDTH 500 0
DWIDTH 6 0
BBX 4 8 1 0
BITMAP
C0
C0
60
30
30
60
C0
C0
ENDCHAR
STARTCHAR question
ENCODING 63
SWIDTH 500 0
DWIDTH 6 0
BBX 5 8 0 0
BITMAP
F0
F8
18
78
70
00
60
60
ENDCHAR
STARTCHAR at
ENCODING 64
SWIDTH 750 0
DWIDTH 9 0
BBX 8 8 0 0
BITMAP
7E
FF
C3
DF
DF
DB
FF
7F
ENDCHAR
STARTCHAR A
ENCODING 65
SWIDTH 500 0
DWIDTH 6 0
BBX 5 8 0 0
BITMAP
70
F8
D8
D8
F8
F8
D8
D8
ENDCHAR
STARTCHAR B
ENCODING 66
SWIDTH 500 0
DWIDTH 6 0
BBX 5 8 0 0
BITMAP
F0
F8
D8
F8
F8
D8
F8
F0
ENDCHAR
STARTCHAR C
ENCODING 67
SWIDTH 500 0
DWIDTH 6 0
BBX 5 8 0 0
BITMAP
70
F8
D8
C0
C0
D8
F8
70
ENDCHAR
STARTCHAR D
ENCODING 68
SWIDTH 500 0
DWIDTH 6 0
BBX 5 8 0 0
BITMAP
F0
F8
D8
D8
D8
D8
F8
F0
ENDCHAR
STARTCHAR E
ENCODING 69
SWIDTH 500 0
DWIDTH 6 0
BBX 5 8 0 0
BITMAP
78
F8
C0
F8
F8
C0
F8
78
ENDCHAR
STARTCHAR F
ENCODING 70
SWIDTH 500 0
DWIDTH 6 0
BBX 5 8 0 0
BITMAP
78
F8
C0
F8
F8
C0
C0
C0
ENDCHAR
STARTCHAR G
ENCODING 71
SWIDTH 500 0
DWIDTH 6 0
BBX 5 8 0 0
BITMAP
78
F8
C0
D8
D8
D8
F8
78
ENDCHAR
STARTCHAR H
ENCODING 72
SWIDTH 500 0
DWIDTH 6 0
BBX 5 8 0 0
BITMAP
D8
D8
D8
F8
F8
D8
D8
D8
ENDCHAR
STARTCHAR I
ENCODING 73
SWIDTH 250 0
DWIDTH 3 0
BBX 2 8 0 0
BITMAP
C0
C0
C0
C0
C0
C0
C0
C0
ENDCHAR
STARTCHAR J
ENCODING 74
SWIDTH 500 0
DWIDTH 6 0
BBX 5 8 0 0
BITMAP
38
38
18
D8
D8
D8
F8
70
ENDCHAR
STARTCHAR K
ENCODING 75
SWIDTH 500 0
DWIDTH 6 0
BBX 5 8 0 0
BITMAP
D8
D8
D8
F0
F8
D8
D8
D8
ENDCHAR
STARTCHAR L
ENCODING 76
SWIDTH 500 0
DWIDTH 6 0
BBX 5 8 0 0
BITMAP
C0
C0
C0
C0
C0
C0
F8
78
ENDCHAR
STARTCHAR M
ENCODING 77
SWIDTH 750 0
DWIDTH 9 0
BBX 8 8 0 0
BITMAP
FE
FF
DB
DB
DB
DB
DB
DB
ENDCHAR
STARTCHAR N
ENCODING 78
SWIDTH 500 0
DWIDTH 6 0
BBX 5 8 0 0
BITMAP
F0
F8
D8
D8
D8
D8
D8
D8
ENDCHAR
STARTCHAR O
ENCODING 79
SWIDTH 500 0
DWIDTH 6 0
BBX 5 8 0 0
BITMAP
70
F8
D8
D8
D8
D8
F8
70
ENDCHAR
STARTCHAR P
ENCODING 80
SWIDTH 500 0
DWIDTH 6 0
BBX 5 8 0 0
BITMAP
F0
F8
D8
D8
F8
F0
C0
C0
ENDCHAR
STARTCHAR Q
ENCODING 81
SWIDTH 500 0
DWIDTH 6 0
BBX 5 9 0 -1
BITMAP
70
F8
D8
D8
D8
D8
F8
70
30
ENDCHAR
STARTCHAR R
ENCODING 82
SWIDTH 500 0
DWIDTH 6 0
BBX 5 8 0 0
BITMAP
F0
F8
D8
D8
F8
F0
D8
D8
ENDCHAR
STARTCHAR S
ENCODING 83
SWIDTH 500 0
DWIDTH 6 0
BBX 5 8 0 0
BITMAP
78
F8
C0
F0
78
18
F8
F0
ENDCHAR
STARTCHAR T
ENCODING 84
SWIDTH 583 0
DWIDTH 7 0
BBX 6 8 0 0
BITMAP
FC
FC
30
30
30
30
30
30
ENDCHAR
STARTCHAR U
ENCODING 85
SWIDTH 500 0
DWIDTH 6 0
BBX 5 8 0 0
BITMAP
D8
D8
D8
D8
D8
D8
F8
70
ENDCHAR
STARTCHAR V
ENCODING 86
SWIDTH 500 0
DWIDTH 6 0
BBX 5 8 0 0
BITMAP
D8
D8
D8
D8
D8
D8
F0
E0
ENDCHAR
STARTCHAR W
ENCODING 87
SWIDTH 750 0
DWIDTH 9 0
BBX 8 8 0 0
BITMAP
DB
DB
DB
DB
DB
DB
FE
FC
ENDCHAR
STARTCHAR X
ENCODING 88
SWIDTH 500 0
DWIDTH 6 0
BBX 5 8 0 0
BITMAP
D8
D8
D8
70
F8
D8
D8
D8
ENDCHAR
STARTCHAR Y
ENCODING 89
SWIDTH 500 0
DWIDTH 6 0
BBX 5 8 0 0
BITMAP
D8
D8
D8
F8
78
18
78
70
ENDCHAR
STARTCHAR Z
ENCODING 90
SWIDTH 500 0
DWIDTH 6 0
BBX 5 8 0 0
BITMAP
F8
F8
18
78
F0
C0
F8
F8
ENDCHAR
STARTCHAR bracketleft
ENCODING 91
SWIDTH 416 0
DWIDTH 5 0
BBX 4 8 0 0
BITMAP
F0
F0
C0
C0
C0
C0
F0
F0
ENDCHAR
STARTCHAR backslash
ENCODING 92
SWIDTH 750 0
DWIDTH 9 0
BBX 8 8 0 0
BITMAP
C0
C0
30
3C
18
14
03
03
ENDCHAR
STARTCHAR bracketright
ENCODING 93
SWIDTH 416 0
DWIDTH 5 0
BBX 4 8 0 0
BITMAP
F0
F0
30
30
30
30
F0
F0
ENDCHAR
STARTCHAR asciicircum
ENCODING 94
SWIDTH 333 0
DWIDTH 4 0
BBX 3 2 0 6
BITMAP
E0
E0
ENDCHAR
STARTCHAR underscore
ENCODING 95
SWIDTH 500 0
DWIDTH 6 0
BBX 5 2 0 0
BITMAP
F8
F8
ENDCHAR
STARTCHAR grave
ENCODING 96
SWIDTH 333 0
DWIDTH 4 0
BBX 3 2 0 6
BITMAP
E0
E0
ENDCHAR
STARTCHAR a
ENCODING 97
SWIDTH 500 0
DWIDTH 6 0
BBX 5 6 0 0
BITMAP
78
F8
D8
D8
F8
78
ENDCHAR
STARTCHAR b
ENCODING 98
SWIDTH 500 0
DWIDTH 6 0
BBX 5 8 0 0
BITMAP
C0
C0
F0
F8
D8
D8
F8
F0
ENDCHAR
STARTCHAR c
ENCODING 99
SWIDTH 500 0
DWIDTH 6 0
BBX 5 6 0 0
BITMAP
78
F8
C0
C0
F8
78
ENDCHAR
STARTCHAR d
ENCODING 100
SWIDTH 500 0
DWIDTH 6 0
BBX 5 8 0 0
BITMAP
18
18
78
F8
D8
D8
F8
78
ENDCHAR
STARTCHAR e
ENCODING 101
SWIDTH 500 0
DWIDTH 6 0
BBX 5 7 0 0
BITMAP
70
F8
D8
F8
F8
E0
60
ENDCHAR
STARTCHAR f
ENCODING 102
SWIDTH 500 0
DWIDTH 6 0
BBX 5 8 0 0
BITMAP
38
78
60
F8
F8
60
60
60
ENDCHAR
STARTCHAR g
ENCODING 103
SWIDTH 500 0
DWIDTH 6 0
BBX 5 8 0 -2
BITMAP
78
F8
D8
D8
F8
78
38
30
ENDCHAR
STARTCHAR h
ENCODING 104
SWIDTH 500 0
DWIDTH 6 0
BBX 5 8 0 0
BITMAP
C0
C0
F0
F8
D8
D8
D8
D8
ENDCHAR
STARTCHAR i
ENCODING 105
SWIDTH 250 0
DWIDTH 3 0
BBX 2 7 0 0
BITMAP
C0
C0
00
C0
C0
C0
C0
ENDCHAR
STARTCHAR j
ENCODING 106
SWIDTH 333 0
DWIDTH 4 0
BBX 3 9 0 -2
BITMAP
60
60
00
60
60
60
60
E0
C0
ENDCHAR
STARTCHAR k
ENCODING 107
SWIDTH 500 0
DWIDTH 6 0
BBX 5 8 0 0
BITMAP
C0
C0
D8
D8
F0
F8
D8
D8
ENDCHAR
STARTCHAR l
ENCODING 108
SWIDTH 250 0
DWIDTH 3 0
BBX 2 8 0 0
BITMAP
C0
C0
C0
C0
C0
C0
C0
C0
ENDCHAR
STARTCHAR m
ENCODING 109
SWIDTH 750 0
DWIDTH 9 0
BBX 8 6 0 0
BITMAP
FE
FF
DB
DB
DB
DB
ENDCHAR
STARTCHAR n
ENCODING 110
SWIDTH 500 0
DWIDTH 6 0
BBX 5 6 0 0
BITMAP
F0
F8
D8
D8
D8
D8
ENDCHAR
STARTCHAR o
ENCODING 111
SWIDTH 500 0
DWIDTH 6 0
BBX 5 6 0 0
BITMAP
70
F8
D8
D8
F8
70
ENDCHAR
STARTCHAR p
ENCODING 112
SWIDTH 500 0
DWIDTH 6 0
BBX 5 8 0 -2
BITMAP
F0
F8
D8
D8
F8
F0
C0
C0
ENDCHAR
STARTCHAR q
ENCODING 113
SWIDTH 500 0
DWIDTH 6 0
BBX 5 8 0 -2
BITMAP
78
F8
D8
D8
F8
78
18
18
ENDCHAR
STARTCHAR r
ENCODING 114
SWIDTH 500 0
DWIDTH 6 0
BBX 5 6 0 0
BITMAP
78
F8
C0
C0
C0
C0
ENDCHAR
STARTCHAR s
ENCODING 115
SWIDTH 500 0
DWIDTH 6 0
BBX 5 6 0 0
BITMAP
78
F8
E0
38
F8
F0
ENDCHAR
STARTCHAR t
ENCODING 116
SWIDTH 500 0
DWIDTH 6 0
BBX 5 8 0 0
BITMAP
60
60
F8
F8
60
60
78
38
ENDCHAR
STARTCHAR u
ENCODING 117
SWIDTH 500 0
DWIDTH 6 0
BBX 5 6 0 0
BITMAP
D8
D8
D8
D8
F8
78
ENDCHAR
STARTCHAR v
ENCODING 118
SWIDTH 500 0
DWIDTH 6 0
BBX 5 6 0 0
BITMAP
D8
D8
D8
D8
F0
E0
ENDCHAR
STARTCHAR w
ENCODING 119
SWIDTH 750 0
DWIDTH 9 0
BBX 8 6 0 0
BITMAP
DB
DB
DB
DB
FE
FC
ENDCHAR
STARTCHAR x
ENCODING 120
SWIDTH 500 0
DWIDTH 6 0
BBX 5 6 0 0
BITMAP
D8
D8
70
F8
D8
D8
ENDCHAR
STARTCHAR y
ENCODING 121
SWIDTH 500 0
DWIDTH 6 0
BBX 5 8 0 -2
BITMAP
D8
D8
D8
F8
78
18
38
30
ENDCHAR
STARTCHAR z
ENCODING 122
SWIDTH 500 0
DWIDTH 6 0
BBX 5 6 0 0
BITMAP
F8
F8
30
60
F8
F8
ENDCHAR
STARTCHAR braceleft
ENCODING 123
SWIDTH 416 0
DWIDTH 5 0
BBX 4 8 0 0
BITMAP
30
70
60
E0
E0
60
70
30
ENDCHAR
STARTCHAR bar
ENCODING 124
SWIDTH 250 0
DWIDTH 3 0
BBX 2 8 0 0
BITMAP
C0
C0
C0
C0
C0
C0
C0
C0
ENDCHAR
STARTCHAR braceright
ENCODING 125
SWIDTH 416 0
DWIDTH 5 0
BBX 3 8 1 0
BITMAP
C0
E0
60
60
60
60
E0
C0
ENDCHAR
STARTCHAR asciitilde
ENCODING 126
SWIDTH 333 0
DWIDTH 4 0
BBX 3 2 0 6
BITMAP
E0
E0
ENDCHAR
STARTCHAR nonbreakingspace
ENCODING 160
SWIDTH 333 0
DWIDTH 4 0
BBX 1 1 0 0
BITMAP
00
ENDCHAR
STARTCHAR hyphen.dup1
ENCODING 8208
SWIDTH 583 0
DWIDTH 7 0
BBX 6 2 0 3
BITMAP
FC
FC
ENDCHAR
STARTCHAR .notdef
ENCODING -1
SWIDTH 500 0
DWIDTH 6 0
BBX 5 10 1 0
BITMAP
F8
88
88
88
88
88
88
88
88
F8
ENDCHAR
STARTCHAR .null
ENCODING -1
SWIDTH 0 0
DWIDTH 0 0
BBX 1 1 0 0
BITMAP
00
ENDCHAR
STARTCHAR nonmarkingreturn
ENCODING -1
SWIDTH 333 0
DWIDTH 4 0
BBX 1 1 0 0
BITMAP
00
ENDCHAR
STARTCHAR DEL
ENCODING -1
SWIDTH 333 0
DWIDTH 4 0
BBX 1 1 0 0
BITMAP
00
ENDCHAR
ENDFONT
